<svg width="387" height="601" viewBox="0 0 387 601" fill="none" xmlns="http://www.w3.org/2000/svg">
<g clip-path="url(#clip0_261_21)">
<path d="M21.7229 474.559L367.453 474.559L367.453 8.45648L21.7229 8.45648L21.7229 474.559Z" fill="#CBE1FD"/>
<path opacity="0.35" d="M24.0156 293.1V248.786L362.609 10.9326H365.155V53.4589L24.0156 293.1Z" fill="white"/>
<path opacity="0.35" d="M24.0156 229.244V10.9326H334.792L24.0156 229.244Z" fill="white"/>
<path d="M375.003 0.969727H14.1719V482.046H375.003V0.969727Z" stroke="#CBE1FD" stroke-width="6" stroke-miterlimit="10"/>
<path d="M386.03 8.45654H0.96875V17.5469H386.03V8.45654Z" fill="white" stroke="#CBE1FD" stroke-width="6" stroke-miterlimit="10"/>
<path d="M386.03 23.6118H0.96875V32.7022H386.03V23.6118Z" fill="white" stroke="#CBE1FD" stroke-width="6" stroke-miterlimit="10"/>
<path d="M386.03 38.7632H0.96875V47.8536H386.03V38.7632Z" fill="white" stroke="#CBE1FD" stroke-width="6" stroke-miterlimit="10"/>
<path d="M386.03 53.9185H0.96875V63.0089H386.03V53.9185Z" fill="white" stroke="#CBE1FD" stroke-width="6" stroke-miterlimit="10"/>
<path d="M386.03 69.0732H0.96875V78.1636H386.03V69.0732Z" fill="white" stroke="#CBE1FD" stroke-width="6" stroke-miterlimit="10"/>
<path d="M218.377 587.193H270.083C270.548 587.193 270.926 586.816 270.926 586.35V584.998C270.926 584.532 270.548 584.155 270.083 584.155H218.377C217.912 584.155 217.534 584.532 217.534 584.998V586.35C217.534 586.816 217.912 587.193 218.377 587.193Z" fill="#88BED7"/>
<path d="M264.158 567.39H245.536C245.536 567.39 243.306 572.177 231.133 573.425C217.541 574.822 218.507 584.158 218.507 584.158H269.443C269.443 584.158 271.899 577.091 264.158 567.39Z" fill="#40465C"/>
<path d="M181.731 567.39H163.115C163.115 567.39 160.886 572.481 148.712 573.739C135.188 575.132 136.087 584.158 136.087 584.158H187.023C187.023 584.158 189.472 577.091 181.731 567.39Z" fill="#40465C"/>
<path d="M135.652 587.193H187.977C188.443 587.193 188.82 586.816 188.82 586.35V584.998C188.82 584.532 188.443 584.155 187.977 584.155H135.652C135.186 584.155 134.808 584.532 134.808 584.998V586.35C134.808 586.816 135.186 587.193 135.652 587.193Z" fill="#88BED7"/>
<path d="M248.016 303.706C248.474 318.703 250.374 434.751 263.746 467.343C277.299 500.375 269.536 567.557 269.536 567.557C250.965 570.492 243.421 567.234 243.421 567.234C243.421 567.234 216.658 455.766 197.826 377.735C195.926 408.032 193.949 453.093 197.138 475.085C202.22 510.063 191.164 567.68 191.164 567.68C175.133 570.169 156.75 567.68 156.75 567.68C156.75 567.68 153.128 512.206 151.044 448.926C150.075 419.528 144.382 311.487 144.625 304.324L248.016 303.706Z" fill="#88BED7"/>
<path d="M214.13 158.623C218.308 158.623 257.923 166.52 257.888 183.783C257.849 202.691 237.783 264.947 239.43 276.361C241.078 287.776 251.833 302.87 246.884 305.039C233.547 310.89 189.024 315.535 144.524 304.179C144.524 304.179 149.166 293.692 141.167 248.14C136.799 223.284 135.781 175.727 139.503 170.775C143.225 165.822 165.637 160.701 173.849 159.179C182.062 157.656 214.13 158.623 214.13 158.623Z" fill="#88BED7"/>
<path d="M212.816 158.484C211.824 164.206 200.862 293.977 215.006 358.547C215.006 358.547 237.945 361.679 261.39 352.86C261.39 352.86 248.076 271.7 247.246 258.181C246.416 244.662 256.777 175.055 250.506 171.221C229.674 158.484 212.816 158.484 212.816 158.484Z" fill="white"/>
<path d="M172.342 159.373C172.342 159.373 175.486 282.636 176.184 357.917C176.184 357.917 153.568 363.58 134.055 354.761C134.055 354.761 141.721 263.641 141.831 252.035C141.941 240.43 135.929 171.761 142.516 168.266C156.689 160.744 172.342 159.373 172.342 159.373Z" fill="white"/>
<path d="M276.476 274.03C293.108 252.749 273.791 173.086 245.7 169.588C242.731 169.219 236.483 171.469 236.063 190.141C235.714 205.691 242.227 235.344 245.432 248.935C221.805 251.615 186.073 260.773 180.739 261.261C174.73 261.811 178.39 281.423 184.503 282.17C194.324 283.37 256.72 288.574 276.476 274.03Z" fill="white"/>
<path d="M178.302 264.034C177.734 259.967 220.897 253.069 244.533 249.445C241.176 234.966 237.939 210.652 237.939 210.652" stroke="#E4EFFD" stroke-width="5" stroke-miterlimit="10"/>
<path d="M145.742 277.386L170.961 242.55" stroke="black" stroke-width="5" stroke-miterlimit="10"/>
<path d="M181.783 265.479C178.852 262.893 161.293 258.788 159.41 260.013C157.526 261.238 142.555 264.578 142.555 264.578C142.555 264.578 142.962 268.179 148.923 267.38C155.849 266.449 157.361 267.865 157.361 267.865C157.361 267.865 156.512 271.696 158.712 273.08C160.912 274.463 158.12 276.597 161.206 279.322C163.015 280.916 163.144 282.959 165.458 283.324C167.771 283.689 180.367 277.386 182.561 272.979C184.416 269.236 183.508 267.022 181.783 265.479Z" fill="#E18C32"/>
<path d="M85.3092 261.4C80.4437 257.098 71.3976 233.376 86.65 233.402C90.0391 233.402 98.3938 234.595 107.889 236.78C111.21 216.799 117.988 185.496 128.925 176.286C134.895 171.256 143.608 167.684 146.574 166.688C165.355 160.391 160.282 290.149 131.099 285.061C121.323 283.341 94.3101 269.353 85.3092 261.4Z" fill="white"/>
<path d="M139.506 255.53C140.876 246.969 138.168 232.962 137.609 212.625" stroke="#E4EFFD" stroke-width="5" stroke-miterlimit="10"/>
<path d="M119.463 303.623H174.088C174.544 303.623 174.991 303.502 175.385 303.274C175.779 303.045 176.105 302.716 176.331 302.32C176.557 301.924 176.675 301.476 176.672 301.02C176.669 300.564 176.545 300.117 176.314 299.725L133.145 226.306C132.73 225.603 132.14 225.019 131.431 224.614C130.722 224.208 129.92 223.995 129.103 223.995H74.4774C74.0216 223.995 73.5739 224.115 73.1795 224.344C72.7851 224.572 72.4582 224.901 72.2318 225.297C72.0055 225.693 71.8878 226.142 71.8907 226.598C71.8935 227.054 72.0169 227.501 72.2482 227.894L115.421 301.309C115.834 302.013 116.425 302.598 117.134 303.004C117.843 303.41 118.646 303.623 119.463 303.623Z" fill="#6562CE"/>
<path d="M111.609 260.68L115.208 266.919C115.341 267.142 115.525 267.331 115.744 267.47C115.964 267.609 116.213 267.695 116.471 267.721H121.473C121.731 267.746 121.98 267.832 122.2 267.971C122.419 268.11 122.603 268.299 122.736 268.522L125.611 273.507C125.745 273.73 125.928 273.919 126.148 274.058C126.367 274.197 126.616 274.283 126.874 274.309H133.103C133.546 274.309 133.698 273.95 133.426 273.507L130.548 268.522C130.293 268.079 130.444 267.721 130.887 267.721H135.872C136.315 267.721 136.467 267.362 136.195 266.919L132.596 260.68C132.463 260.457 132.279 260.268 132.06 260.128C131.84 259.989 131.591 259.903 131.333 259.878H126.367C126.109 259.852 125.86 259.766 125.641 259.627C125.422 259.487 125.238 259.299 125.104 259.076L122.229 254.091C122.095 253.869 121.911 253.681 121.692 253.542C121.472 253.404 121.224 253.318 120.965 253.293H114.73C114.287 253.293 114.136 253.652 114.391 254.091L117.273 259.076C117.528 259.519 117.376 259.878 116.933 259.878H111.945C111.502 259.878 111.354 260.234 111.609 260.68Z" fill="#8281D8"/>
<path d="M89.927 251.884C89.4424 253.972 89.2582 254.936 87.5427 255.537C85.7012 256.882 82.3735 257.215 78.1735 257.328C74.9201 257.419 75.5889 251.577 75.5889 251.577C74.4775 250.782 74.1221 248.344 74.778 246.195C74.778 246.195 72.6101 244.236 73.7247 240.773C73.7247 240.773 71.9801 238.614 72.6553 236.041C73.0366 234.599 77.4207 234.424 80.561 234.369C82.7386 234.23 84.4929 234.182 85.4072 234.137C86.3764 234.088 87.5589 236.096 87.4199 238.931C88.0306 239.629 88.404 240.502 88.4861 241.426C88.6864 243.864 89.8204 247.568 89.3875 250.025C89.2033 250.859 90.0175 251.506 89.927 251.884Z" fill="#E18C32"/>
<path d="M74.5455 235.371C76.6746 235.119 83.6886 234.246 85.3718 234.136C87.7497 233.981 88.8158 238.843 85.7854 239.205C81.9588 240.136 78.0457 240.666 74.1094 240.786" stroke="#D97802" stroke-width="2" stroke-miterlimit="10" stroke-linecap="round"/>
<path d="M75.3281 246.113C85.4889 245.308 87.4952 244.468 87.4952 244.468C88.9781 244.342 89.369 238.872 85.7861 239.205" stroke="#D97802" stroke-width="2" stroke-miterlimit="10" stroke-linecap="round"/>
<path d="M76.0391 251.506C85.6474 250.915 88.7166 249.79 88.7166 249.79C90.0993 249.57 90.332 244.006 87.4954 244.462" stroke="#D97802" stroke-width="2" stroke-miterlimit="10" stroke-linecap="round"/>
<path d="M86.1674 250.455C86.1674 250.455 89.3174 249.233 89.8408 251.26C90.7712 254.864 86.61 256.09 78 256.924" stroke="#D97802" stroke-width="2" stroke-miterlimit="10" stroke-linecap="round"/>
<path d="M167.797 214.826H143.986C143.269 214.826 142.688 215.408 142.688 216.126V229.231C142.688 229.949 143.269 230.531 143.986 230.531H167.797C168.514 230.531 169.096 229.949 169.096 229.231V216.126C169.096 215.408 168.514 214.826 167.797 214.826Z" fill="#E4EFFD"/>
<path d="M157.472 209.166H154.312V216.453H157.472V209.166Z" fill="#85C3D3"/>
<path d="M151.616 217.897H145.891V224.77H151.616V217.897Z" fill="white"/>
<path d="M165.703 217.897H153.43V219.488H165.703V217.897Z" fill="white"/>
<path d="M165.703 220.539H153.43V222.13H165.703V220.539Z" fill="white"/>
<path d="M165.703 223.18H153.43V224.77H165.703V223.18Z" fill="white"/>
<path d="M165.705 225.869H145.891V227.46H165.705V225.869Z" fill="white"/>
<path d="M199.52 216.887C198.185 216.434 197.062 215.509 196.362 214.286C195.661 213.062 195.432 211.625 195.717 210.244L199.633 192.347C201.636 183.493 211.089 178.447 219.88 181.544C228.674 184.637 232.887 194.494 228.907 202.653L220.759 219.063C220.116 220.314 219.04 221.288 217.732 221.802C216.423 222.316 214.973 222.335 213.651 221.856" stroke="#6562CE" stroke-width="5" stroke-miterlimit="10"/>
<path d="M201.793 215.153L200.636 214.746C199.888 214.484 199.068 214.877 198.806 215.626L198.805 215.629C198.542 216.377 198.936 217.197 199.684 217.46L200.841 217.866C201.589 218.129 202.408 217.735 202.671 216.987L202.672 216.984C202.934 216.235 202.541 215.416 201.793 215.153Z" stroke="#6562CE" stroke-width="4.98121" stroke-miterlimit="10"/>
<path d="M213.235 220.214L212.074 219.805C211.323 219.54 210.501 219.935 210.236 220.686L210.235 220.689C209.971 221.44 210.366 222.264 211.116 222.528L212.277 222.937C213.028 223.201 213.851 222.807 214.115 222.055L214.116 222.052C214.38 221.301 213.986 220.478 213.235 220.214Z" stroke="#6562CE" stroke-width="5" stroke-miterlimit="10"/>
<path d="M199.156 194.526C199.156 194.526 206.345 184.566 217.442 188.474C228.366 192.318 227.91 204.637 227.91 204.637" stroke="#6562CE" stroke-width="5" stroke-miterlimit="10"/>
<path d="M163.069 189.351C163.069 189.351 155.89 156.173 178.076 152.43" stroke="#6562CE" stroke-width="5" stroke-miterlimit="10" stroke-linecap="round"/>
<path d="M165.519 203.089C169.379 203.089 172.508 199.959 172.508 196.097C172.508 192.235 169.379 189.104 165.519 189.104C161.66 189.104 158.531 192.235 158.531 196.097C158.531 199.959 161.66 203.089 165.519 203.089Z" fill="white"/>
<path d="M165.445 203.119C169.305 203.119 172.433 199.988 172.433 196.126C172.433 192.264 169.305 189.134 165.445 189.134C161.586 189.134 158.457 192.264 158.457 196.126C158.457 199.988 161.586 203.119 165.445 203.119Z" stroke="#EFAF00" stroke-width="4" stroke-miterlimit="10"/>
<path d="M165.428 200.732C167.992 200.732 170.07 198.652 170.07 196.087C170.07 193.521 167.992 191.441 165.428 191.441C162.864 191.441 160.785 193.521 160.785 196.087C160.785 198.652 162.864 200.732 165.428 200.732Z" fill="#EFAF00"/>
<path d="M220.178 181.414C220.178 181.414 231.808 152.827 209.312 150.564" stroke="#6562CE" stroke-width="5" stroke-miterlimit="10" stroke-linecap="round"/>
<path d="M205.77 131.397C205.77 131.397 202.898 144.868 212.823 158.484C212.823 158.484 195.674 167.264 172.348 159.373C172.348 159.373 186.091 154.637 180.218 131.956L205.77 131.397Z" fill="#E18C32"/>
<path d="M205.217 131.406C205.233 132.302 205.233 133.048 205.217 133.588C205.217 133.588 204.206 143.807 198.946 148.84C194.859 152.749 182.195 156.741 178.082 154.753C181.454 147.642 182.211 139.57 180.221 131.956L205.217 131.406Z" fill="#D97802"/>
<path d="M205.551 133.427L205.512 132.279L205.344 127.162C205.344 127.162 199.962 127.369 201.877 119.268C203.971 110.423 200.462 106.285 191.339 109.796C184.738 112.334 178.461 114.357 174.073 110.795C173.267 110.129 172.569 109.343 172.003 108.464C169.547 104.737 170.63 104.404 174.587 101.957C179.546 98.8984 185.016 92.6302 197.303 95.2261C207.118 97.3015 207.622 105.555 207.622 105.555C207.622 105.555 213.508 104.236 214.83 110.404C216.506 118.146 205.551 133.427 205.551 133.427Z" fill="#40465C"/>
<path d="M207.336 105.852C207.336 105.852 210.444 102.823 213.668 104.82" stroke="#40465C" stroke-width="4" stroke-miterlimit="10"/>
<path d="M205.05 134.058C203.683 136.288 199.648 142.657 197.639 143.413C191.584 145.702 181.892 147.7 178.661 146.031C176.451 144.894 176.329 144.822 173.734 133.563C172.287 127.272 173.088 115.841 174.09 110.795C178.477 114.351 184.751 112.334 191.355 109.796C200.478 106.285 203.987 110.423 201.894 119.268C200.239 126.26 204.023 127.062 205.089 127.152C205.289 126.926 207.748 124.243 210.035 126.238C211.634 127.637 206.123 133.026 205.05 134.058Z" fill="#E18C32"/>
<path d="M176.778 125.807C177.705 125.807 178.458 125.054 178.458 124.126C178.458 123.197 177.705 122.445 176.778 122.445C175.85 122.445 175.098 123.197 175.098 124.126C175.098 125.054 175.85 125.807 176.778 125.807Z" fill="#40465C"/>
<path d="M190.68 125.807C191.608 125.807 192.36 125.054 192.36 124.126C192.36 123.197 191.608 122.445 190.68 122.445C189.752 122.445 189 123.197 189 124.126C189 125.054 189.752 125.807 190.68 125.807Z" fill="#40465C"/>
<path d="M183.195 122.62L180.859 132.298H184.749" stroke="#40465C" stroke-width="4.81" stroke-linecap="round" stroke-linejoin="round"/>
<path d="M183.242 138.651C183.242 138.651 187.894 139.773 189.962 135.247" stroke="#40465C" stroke-width="4.81" stroke-linecap="round" stroke-linejoin="round"/>
</g>
<defs>
<clipPath id="clip0_261_21">
<rect width="387" height="601" fill="white"/>
</clipPath>
</defs>
</svg>
